<mxfile host="app.diagrams.net" agent="Mozilla/5.0 (Windows NT 10.0; Win64; x64) AppleWebKit/537.36 (KHTML, like Gecko) Chrome/131.0.0.0 Safari/537.36" version="26.0.4">
  <diagram name="catalog" id="HybIhVwCzq5EruORasiY">
    <mxGraphModel dx="1434" dy="715" grid="1" gridSize="10" guides="1" tooltips="1" connect="1" arrows="1" fold="1" page="0" pageScale="1" pageWidth="850" pageHeight="1100" math="0" shadow="0">
      <root>
        <mxCell id="0" />
        <mxCell id="1" parent="0" />
        <mxCell id="CgaA7lfagobDSWBrxrx8-8" style="edgeStyle=orthogonalEdgeStyle;rounded=0;orthogonalLoop=1;jettySize=auto;html=1;exitX=1;exitY=0.5;exitDx=0;exitDy=0;entryX=0;entryY=0.5;entryDx=0;entryDy=0;fontStyle=1;fontSize=16;movable=1;resizable=1;rotatable=1;deletable=1;editable=1;locked=0;connectable=1;labelBackgroundColor=none;strokeColor=#E07A5F;fontColor=default;" parent="1" source="CgaA7lfagobDSWBrxrx8-1" target="CgaA7lfagobDSWBrxrx8-4" edge="1">
          <mxGeometry relative="1" as="geometry">
            <Array as="points">
              <mxPoint x="360" y="240" />
              <mxPoint x="360" y="400" />
            </Array>
          </mxGeometry>
        </mxCell>
        <mxCell id="CgaA7lfagobDSWBrxrx8-1" value="recharge" style="rounded=0;whiteSpace=wrap;html=1;fontStyle=1;fontSize=16;movable=1;resizable=1;rotatable=1;deletable=1;editable=1;locked=0;connectable=1;labelBackgroundColor=none;fillColor=#F2CC8F;strokeColor=#E07A5F;fontColor=#393C56;" parent="1" vertex="1">
          <mxGeometry x="120" y="200" width="160" height="80" as="geometry" />
        </mxCell>
        <mxCell id="CgaA7lfagobDSWBrxrx8-9" style="edgeStyle=orthogonalEdgeStyle;rounded=0;orthogonalLoop=1;jettySize=auto;html=1;exitX=1;exitY=0.5;exitDx=0;exitDy=0;fontStyle=1;fontSize=16;movable=1;resizable=1;rotatable=1;deletable=1;editable=1;locked=0;connectable=1;labelBackgroundColor=none;strokeColor=#E07A5F;fontColor=default;" parent="1" source="CgaA7lfagobDSWBrxrx8-2" edge="1">
          <mxGeometry relative="1" as="geometry">
            <mxPoint x="440" y="400.33333333333326" as="targetPoint" />
          </mxGeometry>
        </mxCell>
        <mxCell id="CgaA7lfagobDSWBrxrx8-2" value="utility&amp;nbsp;" style="rounded=0;whiteSpace=wrap;html=1;fontStyle=1;fontSize=16;movable=1;resizable=1;rotatable=1;deletable=1;editable=1;locked=0;connectable=1;labelBackgroundColor=none;fillColor=#F2CC8F;strokeColor=#E07A5F;fontColor=#393C56;" parent="1" vertex="1">
          <mxGeometry x="120" y="360" width="160" height="80" as="geometry" />
        </mxCell>
        <mxCell id="CgaA7lfagobDSWBrxrx8-3" value="billstore" style="rounded=0;whiteSpace=wrap;html=1;fontStyle=1;fontSize=16;movable=1;resizable=1;rotatable=1;deletable=1;editable=1;locked=0;connectable=1;labelBackgroundColor=none;fillColor=#F2CC8F;strokeColor=#E07A5F;fontColor=#393C56;" parent="1" vertex="1">
          <mxGeometry x="120" y="520" width="160" height="80" as="geometry" />
        </mxCell>
        <mxCell id="CgaA7lfagobDSWBrxrx8-14" style="edgeStyle=orthogonalEdgeStyle;rounded=0;orthogonalLoop=1;jettySize=auto;html=1;entryX=0;entryY=0.5;entryDx=0;entryDy=0;fontStyle=1;fontSize=16;movable=1;resizable=1;rotatable=1;deletable=1;editable=1;locked=0;connectable=1;labelBackgroundColor=none;strokeColor=#E07A5F;fontColor=default;" parent="1" source="CgaA7lfagobDSWBrxrx8-4" target="CgaA7lfagobDSWBrxrx8-5" edge="1">
          <mxGeometry relative="1" as="geometry" />
        </mxCell>
        <mxCell id="CgaA7lfagobDSWBrxrx8-15" style="edgeStyle=orthogonalEdgeStyle;rounded=0;orthogonalLoop=1;jettySize=auto;html=1;exitX=1;exitY=0.5;exitDx=0;exitDy=0;entryX=0;entryY=0.5;entryDx=0;entryDy=0;fontStyle=1;fontSize=16;movable=1;resizable=1;rotatable=1;deletable=1;editable=1;locked=0;connectable=1;labelBackgroundColor=none;strokeColor=#E07A5F;fontColor=default;" parent="1" source="CgaA7lfagobDSWBrxrx8-4" target="CgaA7lfagobDSWBrxrx8-6" edge="1">
          <mxGeometry relative="1" as="geometry" />
        </mxCell>
        <mxCell id="CgaA7lfagobDSWBrxrx8-4" value="catalog" style="rounded=0;whiteSpace=wrap;html=1;fontStyle=1;fontSize=16;movable=1;resizable=1;rotatable=1;deletable=1;editable=1;locked=0;connectable=1;labelBackgroundColor=none;fillColor=#F2CC8F;strokeColor=#E07A5F;fontColor=#393C56;" parent="1" vertex="1">
          <mxGeometry x="440" y="360" width="160" height="80" as="geometry" />
        </mxCell>
        <mxCell id="CgaA7lfagobDSWBrxrx8-5" value="recharge" style="rounded=0;whiteSpace=wrap;html=1;fontStyle=1;fontSize=16;movable=1;resizable=1;rotatable=1;deletable=1;editable=1;locked=0;connectable=1;labelBackgroundColor=none;fillColor=#F2CC8F;strokeColor=#E07A5F;fontColor=#393C56;" parent="1" vertex="1">
          <mxGeometry x="800" y="240" width="160" height="80" as="geometry" />
        </mxCell>
        <mxCell id="CgaA7lfagobDSWBrxrx8-6" value="aggregatorconnect&amp;nbsp;" style="rounded=0;whiteSpace=wrap;html=1;fontStyle=1;fontSize=16;movable=1;resizable=1;rotatable=1;deletable=1;editable=1;locked=0;connectable=1;labelBackgroundColor=none;fillColor=#F2CC8F;strokeColor=#E07A5F;fontColor=#393C56;" parent="1" vertex="1">
          <mxGeometry x="800" y="480" width="160" height="80" as="geometry" />
        </mxCell>
        <UserObject label="https://recharge-qa.fcpainternal.in/health" link="https://recharge-qa.fcpainternal.in/health" id="CgaA7lfagobDSWBrxrx8-7">
          <mxCell style="text;html=1;align=center;verticalAlign=middle;whiteSpace=wrap;rounded=0;fontStyle=1;fontSize=16;movable=1;resizable=1;rotatable=1;deletable=1;editable=1;locked=0;connectable=1;labelBackgroundColor=none;fontColor=#393C56;" parent="1" vertex="1">
            <mxGeometry x="40" y="160" width="320" height="30" as="geometry" />
          </mxCell>
        </UserObject>
        <mxCell id="CgaA7lfagobDSWBrxrx8-17" value="" style="endArrow=classic;html=1;rounded=0;entryX=0;entryY=0.5;entryDx=0;entryDy=0;exitX=1;exitY=0.5;exitDx=0;exitDy=0;fontStyle=1;fontSize=16;movable=1;resizable=1;rotatable=1;deletable=1;editable=1;locked=0;connectable=1;labelBackgroundColor=none;strokeColor=#E07A5F;fontColor=default;" parent="1" source="CgaA7lfagobDSWBrxrx8-3" target="CgaA7lfagobDSWBrxrx8-4" edge="1">
          <mxGeometry width="50" height="50" relative="1" as="geometry">
            <mxPoint x="400" y="490" as="sourcePoint" />
            <mxPoint x="450" y="440" as="targetPoint" />
            <Array as="points">
              <mxPoint x="360" y="560" />
              <mxPoint x="360" y="400" />
            </Array>
          </mxGeometry>
        </mxCell>
        <UserObject label="https://utility-qa.fcpainternal.in/health" link="https://utility-qa.fcpainternal.in/health" id="CgaA7lfagobDSWBrxrx8-18">
          <mxCell style="text;html=1;align=center;verticalAlign=middle;whiteSpace=wrap;rounded=0;fontStyle=1;fontSize=16;movable=1;resizable=1;rotatable=1;deletable=1;editable=1;locked=0;connectable=1;labelBackgroundColor=none;fontColor=#393C56;" parent="1" vertex="1">
            <mxGeometry x="40" y="320" width="320" height="30" as="geometry" />
          </mxCell>
        </UserObject>
        <UserObject label="https://billstore-qa.fcpainternal.in/health" link="https://billstore-qa.fcpainternal.in/health" id="CgaA7lfagobDSWBrxrx8-19">
          <mxCell style="text;html=1;align=center;verticalAlign=middle;whiteSpace=wrap;rounded=0;fontStyle=1;fontSize=16;movable=1;resizable=1;rotatable=1;deletable=1;editable=1;locked=0;connectable=1;labelBackgroundColor=none;fontColor=#393C56;" parent="1" vertex="1">
            <mxGeometry x="40" y="480" width="320" height="38" as="geometry" />
          </mxCell>
        </UserObject>
        <UserObject label="https://catalog-qa.fcpainternal.in/health" link="https://catalog-qa.fcpainternal.in/health" id="CgaA7lfagobDSWBrxrx8-20">
          <mxCell style="text;html=1;align=center;verticalAlign=middle;whiteSpace=wrap;rounded=0;fontStyle=1;fontSize=16;movable=1;resizable=1;rotatable=1;deletable=1;editable=1;locked=0;connectable=1;labelBackgroundColor=none;fontColor=#393C56;" parent="1" vertex="1">
            <mxGeometry x="370" y="320" width="310" height="30" as="geometry" />
          </mxCell>
        </UserObject>
        <UserObject label="https://recharge-qa.fcpainternal.in/health" link="https://recharge-qa.fcpainternal.in/health" id="CgaA7lfagobDSWBrxrx8-21">
          <mxCell style="text;html=1;align=center;verticalAlign=middle;whiteSpace=wrap;rounded=0;fontStyle=1;fontSize=16;movable=1;resizable=1;rotatable=1;deletable=1;editable=1;locked=0;connectable=1;labelBackgroundColor=none;fontColor=#393C56;" parent="1" vertex="1">
            <mxGeometry x="639" y="208" width="320" height="30" as="geometry" />
          </mxCell>
        </UserObject>
        <UserObject label="https://aggregatorconnect-qa.fcpainternal.in/health" link="https://aggregatorconnect-qa.fcpainternal.in/health" id="CgaA7lfagobDSWBrxrx8-22">
          <mxCell style="text;html=1;align=center;verticalAlign=middle;whiteSpace=wrap;rounded=0;fontStyle=1;fontSize=16;movable=1;resizable=1;rotatable=1;deletable=1;editable=1;locked=0;connectable=1;labelBackgroundColor=none;fontColor=#393C56;" parent="1" vertex="1">
            <mxGeometry x="559" y="570" width="400" height="30" as="geometry" />
          </mxCell>
        </UserObject>
        <mxCell id="XUYkubXAdE5nk2kDSBY3-3" style="rounded=0;orthogonalLoop=1;jettySize=auto;html=1;exitX=0.5;exitY=1;exitDx=0;exitDy=0;exitPerimeter=0;entryX=0.5;entryY=0;entryDx=0;entryDy=0;labelBackgroundColor=none;strokeColor=#E07A5F;fontColor=default;" parent="1" source="XUYkubXAdE5nk2kDSBY3-2" target="CgaA7lfagobDSWBrxrx8-4" edge="1">
          <mxGeometry relative="1" as="geometry" />
        </mxCell>
        <mxCell id="XUYkubXAdE5nk2kDSBY3-2" value="" style="sketch=0;points=[[0,0,0],[0.25,0,0],[0.5,0,0],[0.75,0,0],[1,0,0],[0,1,0],[0.25,1,0],[0.5,1,0],[0.75,1,0],[1,1,0],[0,0.25,0],[0,0.5,0],[0,0.75,0],[1,0.25,0],[1,0.5,0],[1,0.75,0]];outlineConnect=0;fontColor=#393C56;fillColor=#F2CC8F;strokeColor=#E07A5F;dashed=0;verticalLabelPosition=bottom;verticalAlign=top;align=center;html=1;fontSize=12;fontStyle=0;aspect=fixed;shape=mxgraph.aws4.resourceIcon;resIcon=mxgraph.aws4.cloudfront;labelBackgroundColor=none;" parent="1" vertex="1">
          <mxGeometry x="481" y="202" width="78" height="78" as="geometry" />
        </mxCell>
        <mxCell id="XUYkubXAdE5nk2kDSBY3-4" value="" style="sketch=0;outlineConnect=0;fontColor=#232F3E;gradientColor=none;fillColor=#C925D1;strokeColor=none;dashed=0;verticalLabelPosition=bottom;verticalAlign=top;align=center;html=1;fontSize=12;fontStyle=0;aspect=fixed;pointerEvents=1;shape=mxgraph.aws4.elasticache_for_redis;" parent="1" vertex="1">
          <mxGeometry x="481" y="491" width="78" height="69" as="geometry" />
        </mxCell>
        <mxCell id="XUYkubXAdE5nk2kDSBY3-7" value="" style="endArrow=classic;html=1;rounded=0;strokeColor=#E07A5F;fontColor=#393C56;fillColor=#F2CC8F;entryX=0.5;entryY=1;entryDx=0;entryDy=0;" parent="1" source="XUYkubXAdE5nk2kDSBY3-4" target="CgaA7lfagobDSWBrxrx8-4" edge="1">
          <mxGeometry width="50" height="50" relative="1" as="geometry">
            <mxPoint x="480" y="480" as="sourcePoint" />
            <mxPoint x="530" y="430" as="targetPoint" />
          </mxGeometry>
        </mxCell>
      </root>
    </mxGraphModel>
  </diagram>
</mxfile>
